<mxfile host="app.diagrams.net" modified="2024-03-13T06:36:49.883Z" agent="Mozilla/5.0 (X11; Linux x86_64) AppleWebKit/537.36 (KHTML, like Gecko) Chrome/119.0.0.0 Safari/537.36" version="24.0.1" etag="CpAq4NQO4rFYZEWHlpmE" type="github">
  <diagram name="第 1 页" id="Xv5Sd60QnZ-CbMe6_hZn">
    <mxGraphModel>
      <root>
        <mxCell id="0" />
        <mxCell id="1" parent="0" />
      </root>
    </mxGraphModel>
  </diagram>
</mxfile>
